<?xml version="1.0" encoding="utf-8" ?>
<svg baseProfile="full" height="600" version="1.1" width="800" xmlns="http://www.w3.org/2000/svg" xmlns:ev="http://www.w3.org/2001/xml-events" xmlns:xlink="http://www.w3.org/1999/xlink"><defs /><polygon fill="#FF0000" opacity="0.7" points="29.289321881345245,-122.4744871391589 222.4744871391589,-70.71067811865476 170.71067811865476,122.4744871391589 -22.474487139158896,70.71067811865476" stroke="#000000" /><polygon fill="#FF0000" opacity="0.7" points="181.69872981077805,-68.30127018922194 268.30127018922195,-18.301270189221942 218.30127018922195,68.30127018922194 131.69872981077805,18.301270189221942" stroke="#000000" /><polygon fill="#FF0000" opacity="0.7" points="300.0,-47.14045207910317 347.14045207910317,-3.552713678800501e-15 300.0,47.14045207910317 252.85954792089683,3.552713678800501e-15" stroke="#000000" /><polygon fill="#FF0000" opacity="0.7" points="409.15063509461095,-34.15063509461097 434.15063509461095,9.150635094610962 390.84936490538905,34.15063509461097 365.84936490538905,-9.150635094610962" stroke="#000000" /><polygon fill="#FF0000" opacity="0.7" points="514.142135623731,-24.494897427831784 524.4948974278318,14.142135623730955 485.85786437626905,24.494897427831784 475.5051025721682,-14.142135623730955" stroke="#000000" /><polygon fill="#FF0000" opacity="0.7" points="616.6666666666666,-16.666666666666664 616.6666666666666,16.666666666666664 583.3333333333334,16.666666666666664 583.3333333333334,-16.666666666666664" stroke="#000000" /><polygon fill="#FF0000" opacity="0.7" points="717.4963553055941,-10.101525445522109 710.1015254455222,17.496355305594133 682.5036446944059,10.101525445522109 689.8984745544778,-17.496355305594133" stroke="#000000" /><polygon fill="#FF0000" opacity="0.7" points="817.0753175473055,-4.575317547305487 804.5753175473055,17.07531754730548 782.9246824526945,4.575317547305487 795.4246824526945,-17.07531754730548" stroke="#000000" /><polygon fill="#FF0000" opacity="0.7" points="915.7134840263677,0.0 900.0,15.713484026367722 884.2865159736323,0.0 900.0,-15.713484026367722" stroke="#000000" /></svg>