<?xml version="1.0" encoding="utf-8" ?>
<svg baseProfile="full" height="600" version="1.1" width="800" xmlns="http://www.w3.org/2000/svg" xmlns:ev="http://www.w3.org/2001/xml-events" xmlns:xlink="http://www.w3.org/1999/xlink"><defs /><polygon fill="blue" opacity="0.5" points="21.524750528269635,-93.49671235048685 3.4074173710931746,-25.881904510252074 51.70370868554659,-12.940952255126037" stroke="black" /><polygon fill="red" opacity="0.5" points="51.70370868554659,-12.940952255126037 107.76457135307562,-28.97777478867205 148.2962913144534,12.940952255126037" stroke="black" /><polygon fill="green" opacity="0.5" points="148.2962913144534,12.940952255126037 196.59258262890683,25.881904510252074 214.7099157860833,-41.732903329982705" stroke="black" /><polygon fill="purple" opacity="0.5" points="3.4074173710931746,-25.881904510252074 196.59258262890683,25.881904510252074 87.05904774487396,48.29629131445341" stroke="black" /><polygon fill="blue" opacity="0.5" points="174.19872981077805,-55.31088913245535 156.69872981077805,-24.999999999999996 178.34936490538902,-12.499999999999998" stroke="black" /><polygon fill="red" opacity="0.5" points="178.34936490538902,-12.499999999999998 207.5,-12.99038105676658 221.65063509461098,12.499999999999998" stroke="black" /><polygon fill="green" opacity="0.5" points="221.65063509461098,12.499999999999998 243.30127018922195,24.999999999999996 260.80127018922195,-5.310889132455358" stroke="black" /><polygon fill="purple" opacity="0.5" points="156.69872981077805,-24.999999999999996 243.30127018922195,24.999999999999996 187.5,21.65063509461097" stroke="black" /><polygon fill="blue" opacity="0.5" points="292.9289321881345,-40.069384267237695 276.4297739604484,-23.57022603955158 288.2148869802242,-11.78511301977579" stroke="black" /><polygon fill="red" opacity="0.5" points="288.2148869802242,-11.78511301977579 307.0710678118655,-7.0710678118654755 311.7851130197758,11.78511301977579" stroke="black" /><polygon fill="green" opacity="0.5" points="311.7851130197758,11.78511301977579 323.5702260395516,23.57022603955158 340.0693842672377,7.071067811865472" stroke="black" /><polygon fill="purple" opacity="0.5" points="276.4297739604484,-23.57022603955158 323.5702260395516,23.57022603955158 288.2148869802242,11.785113019775793" stroke="black" /><polygon fill="blue" opacity="0.5" points="402.6554445662277,-30.40063509461097 387.5,-21.650635094610966 393.75,-10.825317547305483" stroke="black" /><polygon fill="red" opacity="0.5" points="393.75,-10.825317547305483 406.49519052838326,-3.750000000000001 406.25,10.825317547305483" stroke="black" /><polygon fill="green" opacity="0.5" points="406.25,10.825317547305483 412.5,21.650635094610966 427.6554445662277,12.900635094610964" stroke="black" /><polygon fill="purple" opacity="0.5" points="387.5,-21.650635094610966 412.5,21.650635094610966 389.1746824526945,6.250000000000002" stroke="black" /><polygon fill="blue" opacity="0.5" points="508.34658066599656,-22.94198315721666 494.8236190979496,-19.318516525781366 497.4118095489748,-9.659258262890683" stroke="black" /><polygon fill="red" opacity="0.5" points="497.4118095489748,-9.659258262890683 505.7955549577344,-1.552914270615126 502.5881904510252,9.659258262890683" stroke="black" /><polygon fill="green" opacity="0.5" points="502.5881904510252,9.659258262890683 505.1763809020504,19.318516525781366 518.6993424700973,15.695049894346072" stroke="black" /><polygon fill="purple" opacity="0.5" points="494.8236190979496,-19.318516525781366 505.1763809020504,19.318516525781366 490.34074173710934,2.5881904510252096" stroke="black" /></svg>