<?xml version="1.0" encoding="utf-8" ?>
<svg baseProfile="full" height="600" version="1.1" width="800" xmlns="http://www.w3.org/2000/svg" xmlns:ev="http://www.w3.org/2001/xml-events" xmlns:xlink="http://www.w3.org/1999/xlink"><defs /><polygon fill="blue" opacity="0.5" points="181.69872981077805,229.28932188134524 344.183174699474,329.28932188134524 454.9038105676658,229.28932188134527" stroke="black" /><polygon fill="blue" opacity="0.5" points="181.69872981077805,229.28932188134524 454.9038105676658,229.28932188134527 292.4193656789699,129.28932188134524" stroke="black" /><polygon fill="red" opacity="0.5" points="145.0961894323342,370.71067811865476 307.5806343210301,470.71067811865476 418.30127018922195,370.71067811865476" stroke="black" /><polygon fill="red" opacity="0.5" points="145.0961894323342,370.71067811865476 418.30127018922195,370.71067811865476 255.816825300526,270.71067811865476" stroke="black" /><polygon fill="green" opacity="0.5" points="181.69872981077805,229.28932188134524 344.183174699474,329.28932188134524 307.5806343210301,470.71067811865476" stroke="black" /><polygon fill="green" opacity="0.5" points="181.69872981077805,229.28932188134524 307.5806343210301,470.71067811865476 145.0961894323342,370.71067811865476" stroke="black" /><polygon fill="purple" opacity="0.5" points="292.4193656789699,129.28932188134524 454.9038105676658,229.28932188134527 418.30127018922195,370.71067811865476" stroke="black" /><polygon fill="purple" opacity="0.5" points="292.4193656789699,129.28932188134524 418.30127018922195,370.71067811865476 255.816825300526,270.71067811865476" stroke="black" /><polygon fill="yellow" opacity="0.5" points="344.183174699474,329.28932188134524 454.9038105676658,229.28932188134527 418.30127018922195,370.71067811865476" stroke="black" /><polygon fill="yellow" opacity="0.5" points="344.183174699474,329.28932188134524 418.30127018922195,370.71067811865476 307.5806343210301,470.71067811865476" stroke="black" /><polygon fill="white" opacity="0.5" points="181.69872981077805,229.28932188134524 292.4193656789699,129.28932188134524 255.816825300526,270.71067811865476" stroke="black" /><polygon fill="white" opacity="0.5" points="181.69872981077805,229.28932188134524 255.816825300526,270.71067811865476 145.0961894323342,370.71067811865476" stroke="black" /></svg>