<?xml version="1.0" encoding="utf-8" ?>
<svg baseProfile="full" height="600" version="1.1" width="800" xmlns="http://www.w3.org/2000/svg" xmlns:ev="http://www.w3.org/2001/xml-events" xmlns:xlink="http://www.w3.org/1999/xlink"><defs /><polygon fill="blue" opacity="0.5" points="64.64466094067262,29.289321881345245 114.64466094067262,100.0 185.35533905932738,100.0" stroke="black" /><polygon fill="blue" opacity="0.5" points="64.64466094067262,29.289321881345245 185.35533905932738,100.0 135.35533905932738,29.289321881345245" stroke="black" /><polygon fill="red" opacity="0.5" points="14.644660940672622,100.0 64.64466094067262,170.71067811865476 135.35533905932738,170.71067811865476" stroke="black" /><polygon fill="red" opacity="0.5" points="14.644660940672622,100.0 135.35533905932738,170.71067811865476 85.35533905932738,100.0" stroke="black" /><polygon fill="green" opacity="0.5" points="64.64466094067262,29.289321881345245 114.64466094067262,100.0 64.64466094067262,170.71067811865476" stroke="black" /><polygon fill="green" opacity="0.5" points="64.64466094067262,29.289321881345245 64.64466094067262,170.71067811865476 14.644660940672622,100.0" stroke="black" /><polygon fill="purple" opacity="0.5" points="135.35533905932738,29.289321881345245 185.35533905932738,100.0 135.35533905932738,170.71067811865476" stroke="black" /><polygon fill="purple" opacity="0.5" points="135.35533905932738,29.289321881345245 135.35533905932738,170.71067811865476 85.35533905932738,100.0" stroke="black" /><polygon fill="yellow" opacity="0.5" points="114.64466094067262,100.0 185.35533905932738,100.0 135.35533905932738,170.71067811865476" stroke="black" /><polygon fill="yellow" opacity="0.5" points="114.64466094067262,100.0 135.35533905932738,170.71067811865476 64.64466094067262,170.71067811865476" stroke="black" /><polygon fill="white" opacity="0.5" points="64.64466094067262,29.289321881345245 135.35533905932738,29.289321881345245 85.35533905932738,100.0" stroke="black" /><polygon fill="white" opacity="0.5" points="64.64466094067262,29.289321881345245 85.35533905932738,100.0 14.644660940672622,100.0" stroke="black" /></svg>