<?xml version="1.0" encoding="utf-8" ?>
<svg baseProfile="full" height="600" version="1.1" width="800" xmlns="http://www.w3.org/2000/svg" xmlns:ev="http://www.w3.org/2001/xml-events" xmlns:xlink="http://www.w3.org/1999/xlink"><defs /><polygon fill="#FF0000" opacity="0.7" points="29.289321881345245,-122.4744871391589 222.4744871391589,-70.71067811865476 170.71067811865476,122.4744871391589 -22.474487139158896,70.71067811865476" stroke="#000000" /><polygon fill="#FF0000" opacity="0.7" points="163.39745962155612,-136.60254037844388 336.6025403784439,-36.602540378443884 236.60254037844388,136.60254037844388 63.39745962155612,36.602540378443884" stroke="#000000" /><polygon fill="#FF0000" opacity="0.7" points="300.0,-141.4213562373095 441.4213562373095,-1.4210854715202004e-14 300.0,141.4213562373095 158.5786437626905,1.4210854715202004e-14" stroke="#000000" /><polygon fill="#FF0000" opacity="0.7" points="436.60254037844385,-136.60254037844388 536.6025403784439,36.60254037844385 363.39745962155615,136.60254037844388 263.3974596215561,-36.60254037844385" stroke="#000000" /><polygon fill="#FF0000" opacity="0.7" points="570.7106781186548,-122.4744871391589 622.4744871391589,70.71067811865476 429.28932188134524,122.4744871391589 377.5255128608411,-70.71067811865476" stroke="#000000" /><polygon fill="#FF0000" opacity="0.7" points="700.0,-100.0 700.0,100.0 500.0,100.0 500.0,-100.0" stroke="#000000" /><polygon fill="#FF0000" opacity="0.7" points="822.4744871391589,-70.71067811865474 770.7106781186548,122.47448713915891 577.5255128608411,70.71067811865474 629.2893218813452,-122.47448713915891" stroke="#000000" /><polygon fill="#FF0000" opacity="0.7" points="936.6025403784438,-36.6025403784439 836.6025403784439,136.60254037844385 663.3974596215562,36.6025403784439 763.3974596215561,-136.60254037844385" stroke="#000000" /><polygon fill="#FF0000" opacity="0.7" points="1041.4213562373095,-1.4210854715202004e-14 900.0,141.4213562373095 758.5786437626905,1.4210854715202004e-14 900.0,-141.4213562373095" stroke="#000000" /></svg>