<?xml version="1.0" encoding="utf-8" ?>
<svg baseProfile="full" height="600" version="1.1" width="800" xmlns="http://www.w3.org/2000/svg" xmlns:ev="http://www.w3.org/2001/xml-events" xmlns:xlink="http://www.w3.org/1999/xlink"><defs /><polygon fill="blue" opacity="0.5" points="47.50041760462743,-55.92306788816396 8.870136093489876,124.64873456887074 199.4135255973335,140.44672023630386" stroke="black" /><polygon fill="blue" opacity="0.5" points="47.50041760462743,-55.92306788816396 199.4135255973335,140.44672023630386 238.04380710847101,-40.12508222073084" stroke="black" /><polygon fill="red" opacity="0.5" points="0.586474402666525,-140.44672023630386 -38.043807108471015,40.12508222073084 152.49958239537256,55.92306788816396" stroke="black" /><polygon fill="red" opacity="0.5" points="0.586474402666525,-140.44672023630386 152.49958239537256,55.92306788816396 191.12986390651014,-124.64873456887074" stroke="black" /><polygon fill="green" opacity="0.5" points="47.50041760462743,-55.92306788816396 8.870136093489876,124.64873456887074 -38.043807108471015,40.12508222073084" stroke="black" /><polygon fill="green" opacity="0.5" points="47.50041760462743,-55.92306788816396 -38.043807108471015,40.12508222073084 0.586474402666525,-140.44672023630386" stroke="black" /><polygon fill="purple" opacity="0.5" points="238.04380710847101,-40.12508222073084 199.4135255973335,140.44672023630386 152.49958239537256,55.92306788816396" stroke="black" /><polygon fill="purple" opacity="0.5" points="238.04380710847101,-40.12508222073084 152.49958239537256,55.92306788816396 191.12986390651014,-124.64873456887074" stroke="black" /><polygon fill="yellow" opacity="0.5" points="8.870136093489876,124.64873456887074 199.4135255973335,140.44672023630386 152.49958239537256,55.92306788816396" stroke="black" /><polygon fill="yellow" opacity="0.5" points="8.870136093489876,124.64873456887074 152.49958239537256,55.92306788816396 -38.043807108471015,40.12508222073084" stroke="black" /><polygon fill="white" opacity="0.5" points="47.50041760462743,-55.92306788816396 238.04380710847101,-40.12508222073084 191.12986390651014,-124.64873456887074" stroke="black" /><polygon fill="white" opacity="0.5" points="47.50041760462743,-55.92306788816396 191.12986390651014,-124.64873456887074 0.586474402666525,-140.44672023630386" stroke="black" /><polygon fill="blue" opacity="0.5" points="203.13116851093753,1.0701662255269682 150.37246985611955,64.37238838147587 229.00821197338945,75.53427808637085" stroke="black" /><polygon fill="blue" opacity="0.5" points="203.13116851093753,1.0701662255269682 229.00821197338945,75.53427808637085 281.76691062820737,12.232055930421936" stroke="black" /><polygon fill="red" opacity="0.5" points="170.99178802661055,-75.53427808637085 118.2330893717926,-12.232055930421936 196.86883148906247,-1.0701662255269682" stroke="black" /><polygon fill="red" opacity="0.5" points="170.99178802661055,-75.53427808637085 196.86883148906247,-1.0701662255269682 249.62753014388045,-64.37238838147587" stroke="black" /><polygon fill="green" opacity="0.5" points="203.13116851093753,1.0701662255269682 150.37246985611955,64.37238838147587 118.2330893717926,-12.232055930421936" stroke="black" /><polygon fill="green" opacity="0.5" points="203.13116851093753,1.0701662255269682 118.2330893717926,-12.232055930421936 170.99178802661055,-75.53427808637085" stroke="black" /><polygon fill="purple" opacity="0.5" points="281.76691062820737,12.232055930421936 229.00821197338945,75.53427808637085 196.86883148906247,-1.0701662255269682" stroke="black" /><polygon fill="purple" opacity="0.5" points="281.76691062820737,12.232055930421936 196.86883148906247,-1.0701662255269682 249.62753014388045,-64.37238838147587" stroke="black" /><polygon fill="yellow" opacity="0.5" points="150.37246985611955,64.37238838147587 229.00821197338945,75.53427808637085 196.86883148906247,-1.0701662255269682" stroke="black" /><polygon fill="yellow" opacity="0.5" points="150.37246985611955,64.37238838147587 196.86883148906247,-1.0701662255269682 118.2330893717926,-12.232055930421936" stroke="black" /><polygon fill="white" opacity="0.5" points="203.13116851093753,1.0701662255269682 281.76691062820737,12.232055930421936 249.62753014388045,-64.37238838147587" stroke="black" /><polygon fill="white" opacity="0.5" points="203.13116851093753,1.0701662255269682 249.62753014388045,-64.37238838147587 170.99178802661055,-75.53427808637085" stroke="black" /><polygon fill="blue" opacity="0.5" points="317.3176335210009,21.631284272709586 261.13414616544156,38.29795093937625 294.8832132718137,42.7637708132283" stroke="black" /><polygon fill="blue" opacity="0.5" points="317.3176335210009,21.631284272709586 294.8832132718137,42.7637708132283 351.06670062737305,26.097104146561634" stroke="black" /><polygon fill="red" opacity="0.5" points="305.1167867281863,-42.7637708132283 248.93329937262695,-26.097104146561634 282.6823664789991,-21.631284272709586" stroke="black" /><polygon fill="red" opacity="0.5" points="305.1167867281863,-42.7637708132283 282.6823664789991,-21.631284272709586 338.86585383455844,-38.29795093937625" stroke="black" /><polygon fill="green" opacity="0.5" points="317.3176335210009,21.631284272709586 261.13414616544156,38.29795093937625 248.93329937262695,-26.097104146561634" stroke="black" /><polygon fill="green" opacity="0.5" points="317.3176335210009,21.631284272709586 248.93329937262695,-26.097104146561634 305.1167867281863,-42.7637708132283" stroke="black" /><polygon fill="purple" opacity="0.5" points="351.06670062737305,26.097104146561634 294.8832132718137,42.7637708132283 282.6823664789991,-21.631284272709586" stroke="black" /><polygon fill="purple" opacity="0.5" points="351.06670062737305,26.097104146561634 282.6823664789991,-21.631284272709586 338.86585383455844,-38.29795093937625" stroke="black" /><polygon fill="yellow" opacity="0.5" points="261.13414616544156,38.29795093937625 294.8832132718137,42.7637708132283 282.6823664789991,-21.631284272709586" stroke="black" /><polygon fill="yellow" opacity="0.5" points="261.13414616544156,38.29795093937625 282.6823664789991,-21.631284272709586 248.93329937262695,-26.097104146561634" stroke="black" /><polygon fill="white" opacity="0.5" points="317.3176335210009,21.631284272709586 351.06670062737305,26.097104146561634 338.86585383455844,-38.29795093937625" stroke="black" /><polygon fill="white" opacity="0.5" points="317.3176335210009,21.631284272709586 338.86585383455844,-38.29795093937625 305.1167867281863,-42.7637708132283" stroke="black" /><polygon fill="blue" opacity="0.5" points="416.09781279004983,30.18437096981569 367.47559590809703,22.025575411488948 376.3830005509284,19.056016680794713" stroke="black" /><polygon fill="blue" opacity="0.5" points="416.09781279004983,30.18437096981569 376.3830005509284,19.056016680794713 425.0052174328812,27.214812239121454" stroke="black" /><polygon fill="red" opacity="0.5" points="423.6169994490716,-19.056016680794713 374.9947825671188,-27.214812239121454 383.90218720995017,-30.18437096981569" stroke="black" /><polygon fill="red" opacity="0.5" points="423.6169994490716,-19.056016680794713 383.90218720995017,-30.18437096981569 432.52440409190297,-22.025575411488948" stroke="black" /><polygon fill="green" opacity="0.5" points="416.09781279004983,30.18437096981569 367.47559590809703,22.025575411488948 374.9947825671188,-27.214812239121454" stroke="black" /><polygon fill="green" opacity="0.5" points="416.09781279004983,30.18437096981569 374.9947825671188,-27.214812239121454 423.6169994490716,-19.056016680794713" stroke="black" /><polygon fill="purple" opacity="0.5" points="425.0052174328812,27.214812239121454 376.3830005509284,19.056016680794713 383.90218720995017,-30.18437096981569" stroke="black" /><polygon fill="purple" opacity="0.5" points="425.0052174328812,27.214812239121454 383.90218720995017,-30.18437096981569 432.52440409190297,-22.025575411488948" stroke="black" /><polygon fill="yellow" opacity="0.5" points="367.47559590809703,22.025575411488948 376.3830005509284,19.056016680794713 383.90218720995017,-30.18437096981569" stroke="black" /><polygon fill="yellow" opacity="0.5" points="367.47559590809703,22.025575411488948 383.90218720995017,-30.18437096981569 374.9947825671188,-27.214812239121454" stroke="black" /><polygon fill="white" opacity="0.5" points="416.09781279004983,30.18437096981569 425.0052174328812,27.214812239121454 432.52440409190297,-22.025575411488948" stroke="black" /><polygon fill="white" opacity="0.5" points="416.09781279004983,30.18437096981569 432.52440409190297,-22.025575411488948 423.6169994490716,-19.056016680794713" stroke="black" /><polygon fill="blue" opacity="0.5" points="507.44558491378996,31.627854230415608 474.3860356017507,10.834382601388224 470.3931233573171,1.1382275411440617" stroke="black" /><polygon fill="blue" opacity="0.5" points="507.44558491378996,31.627854230415608 470.3931233573171,1.1382275411440617 503.4526726693564,21.931699170171445" stroke="black" /><polygon fill="red" opacity="0.5" points="529.6068766426829,-1.1382275411440617 496.5473273306436,-21.931699170171445 492.55441508621004,-31.627854230415608" stroke="black" /><polygon fill="red" opacity="0.5" points="529.6068766426829,-1.1382275411440617 492.55441508621004,-31.627854230415608 525.6139643982493,-10.834382601388224" stroke="black" /><polygon fill="green" opacity="0.5" points="507.44558491378996,31.627854230415608 474.3860356017507,10.834382601388224 496.5473273306436,-21.931699170171445" stroke="black" /><polygon fill="green" opacity="0.5" points="507.44558491378996,31.627854230415608 496.5473273306436,-21.931699170171445 529.6068766426829,-1.1382275411440617" stroke="black" /><polygon fill="purple" opacity="0.5" points="503.4526726693564,21.931699170171445 470.3931233573171,1.1382275411440617 492.55441508621004,-31.627854230415608" stroke="black" /><polygon fill="purple" opacity="0.5" points="503.4526726693564,21.931699170171445 492.55441508621004,-31.627854230415608 525.6139643982493,-10.834382601388224" stroke="black" /><polygon fill="yellow" opacity="0.5" points="474.3860356017507,10.834382601388224 470.3931233573171,1.1382275411440617 492.55441508621004,-31.627854230415608" stroke="black" /><polygon fill="yellow" opacity="0.5" points="474.3860356017507,10.834382601388224 492.55441508621004,-31.627854230415608 496.5473273306436,-21.931699170171445" stroke="black" /><polygon fill="white" opacity="0.5" points="507.44558491378996,31.627854230415608 503.4526726693564,21.931699170171445 525.6139643982493,-10.834382601388224" stroke="black" /><polygon fill="white" opacity="0.5" points="507.44558491378996,31.627854230415608 525.6139643982493,-10.834382601388224 529.6068766426829,-1.1382275411440617" stroke="black" /><polygon fill="blue" opacity="0.5" points="596.9497883017964,28.05021169820365 582.5160315720557,3.0502116982036522 574.1826982387224,-11.383545031536986" stroke="black" /><polygon fill="blue" opacity="0.5" points="596.9497883017964,28.05021169820365 574.1826982387224,-11.383545031536986 588.616454968463,13.616454968463012" stroke="black" /><polygon fill="red" opacity="0.5" points="625.8173017612776,11.383545031536986 611.383545031537,-13.616454968463012 603.0502116982036,-28.05021169820365" stroke="black" /><polygon fill="red" opacity="0.5" points="625.8173017612776,11.383545031536986 603.0502116982036,-28.05021169820365 617.4839684279443,-3.0502116982036522" stroke="black" /><polygon fill="green" opacity="0.5" points="596.9497883017964,28.05021169820365 582.5160315720557,3.0502116982036522 611.383545031537,-13.616454968463012" stroke="black" /><polygon fill="green" opacity="0.5" points="596.9497883017964,28.05021169820365 611.383545031537,-13.616454968463012 625.8173017612776,11.383545031536986" stroke="black" /><polygon fill="purple" opacity="0.5" points="588.616454968463,13.616454968463012 574.1826982387224,-11.383545031536986 603.0502116982036,-28.05021169820365" stroke="black" /><polygon fill="purple" opacity="0.5" points="588.616454968463,13.616454968463012 603.0502116982036,-28.05021169820365 617.4839684279443,-3.0502116982036522" stroke="black" /><polygon fill="yellow" opacity="0.5" points="582.5160315720557,3.0502116982036522 574.1826982387224,-11.383545031536986 603.0502116982036,-28.05021169820365" stroke="black" /><polygon fill="yellow" opacity="0.5" points="582.5160315720557,3.0502116982036522 603.0502116982036,-28.05021169820365 611.383545031537,-13.616454968463012" stroke="black" /><polygon fill="white" opacity="0.5" points="596.9497883017964,28.05021169820365 588.616454968463,13.616454968463012 617.4839684279443,-3.0502116982036522" stroke="black" /><polygon fill="white" opacity="0.5" points="596.9497883017964,28.05021169820365 617.4839684279443,-3.0502116982036522 625.8173017612776,11.383545031536986" stroke="black" /><polygon fill="blue" opacity="0.5" points="688.8365381915007,21.065492443466233 691.1077206376301,-2.2497910837254356 683.6705993256691,-18.575328364961713" stroke="black" /><polygon fill="blue" opacity="0.5" points="688.8365381915007,21.065492443466233 683.6705993256691,-18.575328364961713 681.3994168795397,4.739955162229956" stroke="black" /><polygon fill="red" opacity="0.5" points="716.3294006743309,18.575328364961713 718.6005831204603,-4.739955162229956 711.1634618084993,-21.065492443466233" stroke="black" /><polygon fill="red" opacity="0.5" points="716.3294006743309,18.575328364961713 711.1634618084993,-21.065492443466233 708.8922793623699,2.2497910837254356" stroke="black" /><polygon fill="green" opacity="0.5" points="688.8365381915007,21.065492443466233 691.1077206376301,-2.2497910837254356 718.6005831204603,-4.739955162229956" stroke="black" /><polygon fill="green" opacity="0.5" points="688.8365381915007,21.065492443466233 718.6005831204603,-4.739955162229956 716.3294006743309,18.575328364961713" stroke="black" /><polygon fill="purple" opacity="0.5" points="681.3994168795397,4.739955162229956 683.6705993256691,-18.575328364961713 711.1634618084993,-21.065492443466233" stroke="black" /><polygon fill="purple" opacity="0.5" points="681.3994168795397,4.739955162229956 711.1634618084993,-21.065492443466233 708.8922793623699,2.2497910837254356" stroke="black" /><polygon fill="yellow" opacity="0.5" points="691.1077206376301,-2.2497910837254356 683.6705993256691,-18.575328364961713 711.1634618084993,-21.065492443466233" stroke="black" /><polygon fill="yellow" opacity="0.5" points="691.1077206376301,-2.2497910837254356 711.1634618084993,-21.065492443466233 718.6005831204603,-4.739955162229956" stroke="black" /><polygon fill="white" opacity="0.5" points="688.8365381915007,21.065492443466233 681.3994168795397,4.739955162229956 708.8922793623699,2.2497910837254356" stroke="black" /><polygon fill="white" opacity="0.5" points="688.8365381915007,21.065492443466233 708.8922793623699,2.2497910837254356 716.3294006743309,18.575328364961713" stroke="black" /><polygon fill="blue" opacity="0.5" points="785.381716400016,12.27311175777924 799.0890848620224,-5.723046002044616 794.2733415662497,-20.82361534092096" stroke="black" /><polygon fill="blue" opacity="0.5" points="785.381716400016,12.27311175777924 794.2733415662497,-20.82361534092096 780.5659731042432,-2.827457581097101" stroke="black" /><polygon fill="red" opacity="0.5" points="805.7266584337503,20.82361534092096 819.4340268957568,2.827457581097101 814.618283599984,-12.27311175777924" stroke="black" /><polygon fill="red" opacity="0.5" points="805.7266584337503,20.82361534092096 814.618283599984,-12.27311175777924 800.9109151379776,5.723046002044616" stroke="black" /><polygon fill="green" opacity="0.5" points="785.381716400016,12.27311175777924 799.0890848620224,-5.723046002044616 819.4340268957568,2.827457581097101" stroke="black" /><polygon fill="green" opacity="0.5" points="785.381716400016,12.27311175777924 819.4340268957568,2.827457581097101 805.7266584337503,20.82361534092096" stroke="black" /><polygon fill="purple" opacity="0.5" points="780.5659731042432,-2.827457581097101 794.2733415662497,-20.82361534092096 814.618283599984,-12.27311175777924" stroke="black" /><polygon fill="purple" opacity="0.5" points="780.5659731042432,-2.827457581097101 814.618283599984,-12.27311175777924 800.9109151379776,5.723046002044616" stroke="black" /><polygon fill="yellow" opacity="0.5" points="799.0890848620224,-5.723046002044616 794.2733415662497,-20.82361534092096 814.618283599984,-12.27311175777924" stroke="black" /><polygon fill="yellow" opacity="0.5" points="799.0890848620224,-5.723046002044616 814.618283599984,-12.27311175777924 819.4340268957568,2.827457581097101" stroke="black" /><polygon fill="white" opacity="0.5" points="785.381716400016,12.27311175777924 780.5659731042432,-2.827457581097101 800.9109151379776,5.723046002044616" stroke="black" /><polygon fill="white" opacity="0.5" points="785.381716400016,12.27311175777924 800.9109151379776,5.723046002044616 805.7266584337503,20.82361534092096" stroke="black" /><polygon fill="blue" opacity="0.5" points="886.5877024312606,3.2543690979272517 905.5555555555555,-7.856742013183861 902.3011864576283,-18.967853124294972" stroke="black" /><polygon fill="blue" opacity="0.5" points="886.5877024312606,3.2543690979272517 902.3011864576283,-18.967853124294972 883.3333333333334,-7.856742013183861" stroke="black" /><polygon fill="red" opacity="0.5" points="897.6988135423717,18.967853124294972 916.6666666666666,7.856742013183861 913.4122975687394,-3.2543690979272517" stroke="black" /><polygon fill="red" opacity="0.5" points="897.6988135423717,18.967853124294972 913.4122975687394,-3.2543690979272517 894.4444444444445,7.856742013183861" stroke="black" /><polygon fill="green" opacity="0.5" points="886.5877024312606,3.2543690979272517 905.5555555555555,-7.856742013183861 916.6666666666666,7.856742013183861" stroke="black" /><polygon fill="green" opacity="0.5" points="886.5877024312606,3.2543690979272517 916.6666666666666,7.856742013183861 897.6988135423717,18.967853124294972" stroke="black" /><polygon fill="purple" opacity="0.5" points="883.3333333333334,-7.856742013183861 902.3011864576283,-18.967853124294972 913.4122975687394,-3.2543690979272517" stroke="black" /><polygon fill="purple" opacity="0.5" points="883.3333333333334,-7.856742013183861 913.4122975687394,-3.2543690979272517 894.4444444444445,7.856742013183861" stroke="black" /><polygon fill="yellow" opacity="0.5" points="905.5555555555555,-7.856742013183861 902.3011864576283,-18.967853124294972 913.4122975687394,-3.2543690979272517" stroke="black" /><polygon fill="yellow" opacity="0.5" points="905.5555555555555,-7.856742013183861 913.4122975687394,-3.2543690979272517 916.6666666666666,7.856742013183861" stroke="black" /><polygon fill="white" opacity="0.5" points="886.5877024312606,3.2543690979272517 883.3333333333334,-7.856742013183861 894.4444444444445,7.856742013183861" stroke="black" /><polygon fill="white" opacity="0.5" points="886.5877024312606,3.2543690979272517 894.4444444444445,7.856742013183861 897.6988135423717,18.967853124294972" stroke="black" /></svg>